<svg xmlns="http://www.w3.org/2000/svg" viewBox="0 0 39 39"><title>Carga Horária</title><g id="Layer_2" data-name="Layer 2"><g id="Layer_1-2" data-name="Layer 1"><path d="M19.5,0A19.5,19.5,0,1,0,39,19.5,19.53,19.53,0,0,0,19.5,0Zm0,37.7A18.2,18.2,0,1,1,37.7,19.5,18.21,18.21,0,0,1,19.5,37.7Z" style="fill:#fff"/><path d="M20.15,17V10.4a.65.65,0,1,0-1.3,0V17A2.61,2.61,0,0,0,17,18.85H12.35a.65.65,0,1,0,0,1.3H17A2.6,2.6,0,1,0,20.15,17ZM19.5,20.8a1.3,1.3,0,1,1,1.3-1.3A1.3,1.3,0,0,1,19.5,20.8Z" style="fill:#fff"/><path d="M19.5,6.5a.65.65,0,0,0,.65-.65V5.2a.65.65,0,1,0-1.3,0v.65A.65.65,0,0,0,19.5,6.5Z" style="fill:#fff"/><path d="M19.5,32.5a.65.65,0,0,0-.65.65v.65a.65.65,0,1,0,1.3,0v-.65A.65.65,0,0,0,19.5,32.5Z" style="fill:#fff"/><path d="M33.8,18.85h-.65a.65.65,0,0,0,0,1.3h.65a.65.65,0,0,0,0-1.3Z" style="fill:#fff"/><path d="M5.85,18.85H5.2a.65.65,0,1,0,0,1.3h.65a.65.65,0,1,0,0-1.3Z" style="fill:#fff"/><path d="M29.15,8.93l-.46.46a.66.66,0,0,0,0,.92.7.7,0,0,0,.46.19.68.68,0,0,0,.46-.19l.46-.46a.65.65,0,0,0-.92-.92Z" style="fill:#fff"/><path d="M9.39,28.69l-.46.46a.65.65,0,0,0,.46,1.11.65.65,0,0,0,.46-.19l.46-.46a.65.65,0,1,0-.92-.92Z" style="fill:#fff"/><path d="M29.61,28.69a.65.65,0,1,0-.92.92l.46.46a.65.65,0,0,0,.92-.92Z" style="fill:#fff"/><path d="M9.85,8.93a.65.65,0,0,0-.92.92l.46.46a.68.68,0,0,0,.46.19.7.7,0,0,0,.46-.19.66.66,0,0,0,0-.92Z" style="fill:#fff"/></g></g></svg>