<svg xmlns="http://www.w3.org/2000/svg" viewBox="0 0 87.94 108"><title>Certificação Internacional</title><g id="Layer_2" data-name="Layer 2"><g id="Layer_1-2" data-name="Layer 1"><path d="M87.93,20.31l0-.18a.13.13,0,0,0,0-.06,1.42,1.42,0,0,0,0-.22v0c0-.07,0-.14-.07-.21v0l-.09-.2s0,0,0,0l-.1-.17,0-.05A1.34,1.34,0,0,0,87.4,19l0-.06-.13-.15a.08.08,0,0,1,0,0l-18-18,0,0A.93.93,0,0,0,69,.59l-.06,0a.71.71,0,0,0-.14-.1s0,0,0,0a1,1,0,0,0-.17-.1l0,0L68.36.2h0L68.12.11h0L67.88.05h-.07l-.18,0H2.57A2.57,2.57,0,0,0,0,2.57V105.43A2.57,2.57,0,0,0,2.57,108h82.8a2.57,2.57,0,0,0,2.57-2.57V20.57A2.35,2.35,0,0,0,87.93,20.31Zm-18-11.53L79.16,18H69.94ZM5.14,102.86V5.14H64.8V20.57a2.57,2.57,0,0,0,2.57,2.57H82.8v79.72Z" style="fill:#666"/><path d="M23.14,39.6a2.57,2.57,0,0,0,2.57,2.57H42.17a2.57,2.57,0,0,0,0-5.14H25.71A2.57,2.57,0,0,0,23.14,39.6Z" style="fill:#666"/><path d="M41.66,26.74a7.72,7.72,0,1,0-7.72,7.72A7.72,7.72,0,0,0,41.66,26.74Zm-10.29,0a2.57,2.57,0,1,1,2.57,2.57A2.57,2.57,0,0,1,31.37,26.74Z" style="fill:#666"/><path d="M15.43,52.46h37A2.57,2.57,0,0,0,55,49.89V41.68a2.57,2.57,0,0,0-5.14,0v5.63H18V15.43H49.89V32.91a2.57,2.57,0,1,0,5.14,0v-20a2.57,2.57,0,0,0-2.57-2.57h-37a2.57,2.57,0,0,0-2.57,2.57v37A2.57,2.57,0,0,0,15.43,52.46Z" style="fill:#666"/><path d="M72.51,60.17H15.43a2.57,2.57,0,0,0,0,5.14H72.51a2.57,2.57,0,1,0,0-5.14Z" style="fill:#666"/><path d="M72.51,73H15.43a2.57,2.57,0,1,0,0,5.14H72.51a2.57,2.57,0,1,0,0-5.14Z" style="fill:#666"/><path d="M72.51,85.89H15.43a2.57,2.57,0,0,0,0,5.14H72.51a2.57,2.57,0,1,0,0-5.14Z" style="fill:#666"/></g></g></svg>