<svg xmlns="http://www.w3.org/2000/svg" viewBox="0 0 45 42"><title>Diferenciais</title><g id="Layer_2" data-name="Layer 2"><g id="Layer_1-2" data-name="Layer 1"><path d="M31.68,37.52a.76.76,0,0,0-.91.55l-.75,3a.76.76,0,0,0,.55.91l.18,0a.76.76,0,0,0,.73-.57l.75-3A.76.76,0,0,0,31.68,37.52Z" style="fill:#fff"/><path d="M33.75,38.25A.76.76,0,0,0,33,39v2.25a.75.75,0,0,0,1.5,0V39A.76.76,0,0,0,33.75,38.25Z" style="fill:#fff"/><path d="M31.42,30.18a.75.75,0,0,0-1-.34,17.4,17.4,0,0,1-7.17,1.64V24.75a.75.75,0,0,0-1.5,0v6.72C12.44,31.17,9.43,25.53,9,24.59V19.5a.75.75,0,0,0-1.5,0v5.25a.87.87,0,0,0,0,.28c.13.32,3.33,8,15,8a19.36,19.36,0,0,0,8.58-1.81A.75.75,0,0,0,31.42,30.18Z" style="fill:#fff"/><path d="M22.5,22.5a.72.72,0,0,0,.29-.06L31,19a.75.75,0,0,0,.4-1,.76.76,0,0,0-1-.41l-8,3.3-21-8.69V12a.76.76,0,0,0-.75-.75A.76.76,0,0,0,0,12v.75a.74.74,0,0,0,.46.69l21.75,9A.75.75,0,0,0,22.5,22.5Z" style="fill:#fff"/><path d="M44.25,11.25a.76.76,0,0,0-.75.75v.25l-9,3.7V14.6l10-4.16a.75.75,0,0,0,0-1.38L22.79.06a.73.73,0,0,0-.58,0L.46,9.06a.75.75,0,0,0,0,1.38l21.75,9a.75.75,0,0,0,.29.06.72.72,0,0,0,.29-.06l7.86-3.25a.75.75,0,0,0,.41-1,.76.76,0,0,0-1-.41L22.5,17.94,2.71,9.75,22.5,1.56,42.29,9.75l-8.61,3.56-8.25-3.08a1.85,1.85,0,0,0,.07-.48c0-1.26-1.32-2.25-3-2.25s-3,1-3,2.25S20.82,12,22.5,12a3.62,3.62,0,0,0,1.94-.53L33,14.66v2.4h0V33.14a2.25,2.25,0,1,0,1.5,0V28.88a9.12,9.12,0,0,0,3-3.88.73.73,0,0,0,0-.25V19.5a.75.75,0,0,0-1.5,0v5.11a7.67,7.67,0,0,1-1.5,2.27V17.57l10-4.13a.74.74,0,0,0,.46-.69V12A.76.76,0,0,0,44.25,11.25ZM22.5,10.5c-.92,0-1.5-.44-1.5-.75S21.58,9,22.5,9s1.5.44,1.5.75S23.42,10.5,22.5,10.5ZM33.75,36a.75.75,0,1,1,.75-.75A.76.76,0,0,1,33.75,36Z" style="fill:#fff"/><path d="M36.73,38.07a.75.75,0,1,0-1.46.36l.75,3a.76.76,0,0,0,.73.57l.18,0a.76.76,0,0,0,.55-.91Z" style="fill:#fff"/></g></g></svg>