<svg xmlns="http://www.w3.org/2000/svg" viewBox="0 0 90.32 123.49"><title>Excelência no Ensino</title><g id="Layer_2" data-name="Layer 2"><g id="Layer_1-2" data-name="Layer 1"><path d="M89.76,43.5,83.22,35l1.39-10.67A2.73,2.73,0,0,0,83,21.42L73,17.3,68.9,7.36A2.72,2.72,0,0,0,66,5.7L55.36,7.1,46.81.56a2.72,2.72,0,0,0-3.31,0L35,7.1,24.29,5.7a2.72,2.72,0,0,0-2.87,1.66L17.3,17.3,7.36,21.42A2.72,2.72,0,0,0,5.7,24.29L7.1,35,.56,43.5a2.72,2.72,0,0,0,0,3.31L7.1,55.36,5.7,66A2.72,2.72,0,0,0,7.36,68.9L17.3,73,21.42,83a2.72,2.72,0,0,0,2.06,1.64v36.16a2.72,2.72,0,0,0,4.18,2.3L45.16,112l17.5,11.1a2.69,2.69,0,0,0,2.77.09,2.72,2.72,0,0,0,1.41-2.39V84.6A2.75,2.75,0,0,0,68.9,83L73,73,83,68.9A2.73,2.73,0,0,0,84.61,66L83.22,55.36l6.54-8.55A2.75,2.75,0,0,0,89.76,43.5ZM46.62,106.44a2.71,2.71,0,0,0-2.92,0l-14.78,9.37V84l6-.79,8.54,6.54a2.77,2.77,0,0,0,1.66.56,2.72,2.72,0,0,0,1.65-.56l8.55-6.54,6,.79v31.8Zm31.59-53.5a2.74,2.74,0,0,0-.54,2l1.27,9.71-9,3.75a2.75,2.75,0,0,0-1.48,1.48l-3.75,9L55,77.67a2.74,2.74,0,0,0-2,.54l-7.78,6-7.78-6a2.7,2.7,0,0,0-1.66-.56l-.35,0-9.72,1.27-3.75-9a2.7,2.7,0,0,0-1.47-1.48l-9.06-3.75L12.65,55a2.74,2.74,0,0,0-.54-2l-6-7.78,6-7.78a2.75,2.75,0,0,0,.54-2l-1.28-9.72,9.06-3.75a2.65,2.65,0,0,0,1.47-1.47l3.75-9.06,9.72,1.28a2.75,2.75,0,0,0,2-.54l7.78-6,7.78,6a2.74,2.74,0,0,0,2,.54l9.72-1.28,3.74,9.06a2.7,2.7,0,0,0,1.48,1.47l9,3.75-1.27,9.72a2.75,2.75,0,0,0,.54,2l6,7.78Z" style="fill:#666"/><path d="M28.53,27.59A2.68,2.68,0,0,0,30.25,27a23.6,23.6,0,0,1,14.91-5.33,2.72,2.72,0,1,0,0-5.44A29,29,0,0,0,26.8,22.76a2.72,2.72,0,0,0,1.73,4.83Z" style="fill:#666"/><path d="M54.87,17.87A2.72,2.72,0,1,0,53,23,23.52,23.52,0,1,1,25.5,32.25a2.73,2.73,0,0,0-4.55-3A29,29,0,1,0,54.87,17.87Z" style="fill:#666"/></g></g></svg>