<svg xmlns="http://www.w3.org/2000/svg" viewBox="0 0 39.63 41"><title>Horário</title><g id="Layer_2" data-name="Layer 2"><g id="Layer_1-2" data-name="Layer 1"><path d="M38.42,2.4H30.5V1.21a1.21,1.21,0,0,0-2.42,0V2.4H21V1.21a1.21,1.21,0,1,0-2.41,0V2.4H11.84V1.21a1.21,1.21,0,1,0-2.41,0V2.4H1.21A1.21,1.21,0,0,0,0,3.61V30.92a1.21,1.21,0,0,0,1.21,1.21H8.63a11.49,11.49,0,0,0,22.37,0h7.42a1.21,1.21,0,0,0,1.21-1.21V3.61A1.21,1.21,0,0,0,38.42,2.4Zm-29,2.42V5.91a1.21,1.21,0,1,0,2.41,0V4.82h6.77V5.91a1.21,1.21,0,1,0,2.41,0V4.82h7.06V5.91a1.21,1.21,0,0,0,2.42,0V4.82h6.71V9.76H2.42V4.82ZM19.81,38.58a9.08,9.08,0,1,1,9.08-9.07A9.08,9.08,0,0,1,19.81,38.58ZM31.3,29.71c0-.07,0-.13,0-.2a11.5,11.5,0,0,0-23,0c0,.07,0,.13,0,.2H2.42V12.18H37.21V29.71Z" style="fill:#fff"/><path d="M21,29.81V24a1.21,1.21,0,1,0-2.41,0v6.34a1.21,1.21,0,0,0,.35.86L21.74,34a1.2,1.2,0,0,0,.85.35,1.24,1.24,0,0,0,.86-.35,1.21,1.21,0,0,0,0-1.71L21,29.81Z" style="fill:#fff"/></g></g></svg>