<svg xmlns="http://www.w3.org/2000/svg" viewBox="0 0 112.63 110.9"><title>Metodologia Diferenciada</title><g id="Layer_2" data-name="Layer 2"><g id="Layer_1-2" data-name="Layer 1"><path d="M56.32,21.92a11,11,0,1,0-11-11A11,11,0,0,0,56.32,21.92Zm0-16.44A5.48,5.48,0,1,1,50.84,11,5.48,5.48,0,0,1,56.32,5.48Z" style="fill:#666"/><path d="M39.88,46.58a2.74,2.74,0,0,0,2.74-2.74,13.7,13.7,0,1,1,27.39,0,2.74,2.74,0,0,0,5.48,0,19.18,19.18,0,1,0-38.35,0A2.74,2.74,0,0,0,39.88,46.58Z" style="fill:#666"/><path d="M19.18,86.24a11,11,0,1,0-11-11A11,11,0,0,0,19.18,86.24Zm0-16.44a5.48,5.48,0,1,1-5.48,5.48A5.49,5.49,0,0,1,19.18,69.8Z" style="fill:#666"/><path d="M19.18,89A19.2,19.2,0,0,0,0,108.16a2.74,2.74,0,0,0,5.48,0,13.7,13.7,0,0,1,27.4,0,2.74,2.74,0,0,0,5.48,0A19.2,19.2,0,0,0,19.18,89Z" style="fill:#666"/><path d="M93.45,86.24a11,11,0,1,0-11-11A11,11,0,0,0,93.45,86.24Zm0-16.44A5.48,5.48,0,1,1,88,75.28,5.49,5.49,0,0,1,93.45,69.8Z" style="fill:#666"/><path d="M93.45,89a19.2,19.2,0,0,0-19.18,19.18,2.74,2.74,0,0,0,5.48,0,13.7,13.7,0,0,1,27.4,0,2.74,2.74,0,0,0,5.48,0A19.2,19.2,0,0,0,93.45,89Z" style="fill:#666"/><path d="M73.34,74.45,59.05,66.2V49.7a2.74,2.74,0,1,0-5.47,0V66.2L39.29,74.45A2.74,2.74,0,1,0,42,79.19l14.29-8.25L70.6,79.19a2.74,2.74,0,1,0,2.74-4.74Z" style="fill:#666"/></g></g></svg>