<svg xmlns="http://www.w3.org/2000/svg" viewBox="0 0 39 39"><title>Modelo da Formação</title><g id="Layer_2" data-name="Layer 2"><g id="Layer_1-2" data-name="Layer 1"><path d="M38.35,0H.65A.65.65,0,0,0,0,.65H0v13H1.3V1.3H37.7V15.6H15v1.3h23.4a.65.65,0,0,0,.65-.65h0V.65A.65.65,0,0,0,38.35,0Z" style="fill:#fff"/><rect x="21.45" y="3.25" width="13" height="1.3" style="fill:#fff"/><rect x="23.4" y="7.15" width="13" height="1.3" style="fill:#fff"/><rect x="20.8" y="11.05" width="13" height="1.3" style="fill:#fff"/><path d="M20.75,5.6A2.1,2.1,0,0,0,18,4.47L18,4.5,12.68,7.23A3.14,3.14,0,0,0,13,5.85a3.25,3.25,0,0,0-6.5,0,3.2,3.2,0,0,0,.67,2h0A4.44,4.44,0,0,0,3,10.69l-1.74,6A2.08,2.08,0,0,0,4,19.35a2.11,2.11,0,0,0,1.2-1.25l.68-2.16v9.4a3.19,3.19,0,0,0-1.95-.66A3.24,3.24,0,0,0,.65,27.92a3.27,3.27,0,0,0,1,2.33A3,3,0,0,0,0,32.9v5.45A.65.65,0,0,0,.65,39h6.5a.65.65,0,0,0,.65-.65h0V32.9a3,3,0,0,0-1.16-2.35h4.92A3,3,0,0,0,10.4,32.9v5.45a.65.65,0,0,0,.65.65h6.5a.65.65,0,0,0,.65-.65h0V32.9a3,3,0,0,0-1.63-2.65,3.25,3.25,0,0,0-2.92-5.51V11.44l6-3.09A2.11,2.11,0,0,0,20.75,5.6Zm-11-1.7A1.95,1.95,0,1,1,7.8,5.85,1.95,1.95,0,0,1,9.75,3.9ZM3.9,26A1.95,1.95,0,1,1,2,27.93,1.95,1.95,0,0,1,3.9,26ZM6.5,37.7H1.3V32.9A1.7,1.7,0,0,1,3,31.2H4.8a1.7,1.7,0,0,1,1.7,1.7Zm10.4-4.8v4.8H11.7V32.9a1.7,1.7,0,0,1,1.7-1.7h1.8A1.7,1.7,0,0,1,16.9,32.9ZM14.3,26a1.95,1.95,0,1,1-2,1.95A1.95,1.95,0,0,1,14.3,26ZM19.56,6.69a.86.86,0,0,1-.49.48l-6.37,3.3a.67.67,0,0,0-.35.58V25.34a3.2,3.2,0,0,0-1,3.91H10.4v-11H9.1V29.25H6.86A3.24,3.24,0,0,0,7.15,28h0V11.7a.65.65,0,0,0-1.27-.19L3.94,17.68a.78.78,0,0,1-1,.47l-.09,0a.8.8,0,0,1-.36-1l1.74-6a3.14,3.14,0,0,1,2.91-2h4.6A.6.6,0,0,0,12,9L18.5,5.67a.81.81,0,0,1,1.06,1Z" style="fill:#fff"/><path d="M27,30.25a3.25,3.25,0,1,0-4.6-.06l.06.06A3,3,0,0,0,20.8,32.9v5.45a.65.65,0,0,0,.65.65H28a.65.65,0,0,0,.65-.65h0V32.9A3,3,0,0,0,27,30.25ZM24.7,26a1.95,1.95,0,1,1-1.95,1.95A1.95,1.95,0,0,1,24.7,26ZM27.3,37.7H22.1V32.9a1.7,1.7,0,0,1,1.7-1.7h1.8a1.7,1.7,0,0,1,1.7,1.7Z" style="fill:#fff"/><path d="M37.37,30.25a3.25,3.25,0,1,0-4.6-.06l.06.06A3,3,0,0,0,31.2,32.9v5.45a.65.65,0,0,0,.65.65h6.5a.65.65,0,0,0,.65-.65h0V32.9A3,3,0,0,0,37.37,30.25ZM35.1,26a1.95,1.95,0,1,1-2,1.95A1.95,1.95,0,0,1,35.1,26ZM37.7,37.7H32.5V32.9a1.7,1.7,0,0,1,1.7-1.7H36a1.7,1.7,0,0,1,1.7,1.7Z" style="fill:#fff"/></g></g></svg>